<svg width="27" height="25" viewBox="0 0 27 25" fill="none" xmlns="http://www.w3.org/2000/svg">
<path fill-rule="evenodd" clip-rule="evenodd" d="M4.77996 4.55174H25.8906C26.6121 4.55174 27.1411 5.23767 26.9664 5.94361L24.7134 15.0476C24.5958 15.5226 24.1865 15.8655 23.7027 15.8942L5.98189 16.9463C6.2987 17.6943 7.03271 18.2077 7.875 18.2077H20.2585C22.1121 18.2077 23.6202 19.7312 23.6202 21.6038C23.6202 23.4765 22.1121 25 20.2585 25C17.9357 25 16.3027 22.6594 17.0974 20.448H11.0286C11.8242 22.6622 10.1877 25 7.8675 25C5.07201 25 3.50178 21.7314 5.22033 19.5143C4.26715 18.7515 3.71383 17.6289 3.62333 16.5944C2.21878 0.785384 2.2804 1.47905 2.4119 2.95922C2.50026 3.95381 2.62016 5.30349 2.348 2.2404H1.10884C0.496445 2.2404 0 1.73887 0 1.1202C0 0.501529 0.496445 0 1.10884 0H3.36175C3.93571 0 4.41483 0.442532 4.46616 1.02007L4.77996 4.55174ZM6.72351 21.6038C6.72351 22.2411 7.23675 22.7596 7.86752 22.7596C8.49834 22.7596 9.01158 22.2411 9.01158 21.6038C9.01158 20.9665 8.49834 20.448 7.86752 20.448C7.23675 20.448 6.72351 20.9665 6.72351 21.6038ZM20.2584 22.7596C19.6276 22.7596 19.1144 22.2411 19.1144 21.6038C19.1144 20.9665 19.6276 20.448 20.2584 20.448C20.8893 20.448 21.4025 20.9665 21.4025 21.6038C21.4025 22.2411 20.8893 22.7596 20.2584 22.7596ZM5.68338 14.7197L22.7594 13.7059L24.4705 6.79208H4.979L5.68338 14.7197Z" fill="#00B0FF"/>
</svg>
