<svg width="51" height="52" viewBox="0 0 51 52" fill="none" xmlns="http://www.w3.org/2000/svg">
<path fill-rule="evenodd" clip-rule="evenodd" d="M12.9059 4.53294C12.9059 4.62119 12.9059 4.68319 12.9059 4.74519C12.9059 11.5617 12.9042 18.3784 12.9087 25.1949C12.9092 25.8894 12.9219 26.5857 12.9744 27.2777C13.0674 28.5017 13.3694 29.6809 13.8412 30.8142C14.9827 33.5559 16.8612 35.6432 19.4544 37.0837C20.6384 37.7414 21.9064 38.1754 23.2392 38.4164C24.1942 38.5892 25.1582 38.6469 26.1259 38.5922C28.3409 38.4667 30.3904 37.8147 32.2507 36.6014C34.6712 35.0227 36.3599 32.8632 37.3154 30.1354C37.6764 29.1052 37.8869 28.0424 37.9589 26.9524C38.1354 24.2839 37.5454 21.7974 36.1447 19.5192C34.6772 17.1322 32.6264 15.4242 30.0224 14.3862C29.0202 13.9867 27.9804 13.7309 26.9079 13.6124C23.9579 13.2869 21.2254 13.9122 18.7117 15.4912C18.6847 15.5082 18.6554 15.5219 18.6137 15.5444C18.6112 15.4877 18.6074 15.4439 18.6074 15.4002C18.6072 11.0127 18.6077 6.62519 18.6042 2.23769C18.6042 2.12344 18.6412 2.08044 18.7454 2.05169C19.8702 1.74219 21.0102 1.50744 22.1659 1.35169C23.5727 1.16194 24.9867 1.10169 26.4044 1.15244C27.5454 1.19319 28.6787 1.31569 29.8042 1.51444C32.6722 2.02044 35.3737 2.99144 37.8887 4.45744C42.4179 7.09694 45.8072 10.7914 48.0494 15.5324C48.9722 17.4837 49.6097 19.5274 49.9922 21.6507C50.3099 23.4157 50.4339 25.1959 50.3644 26.9867C50.2002 31.2337 49.0389 35.1899 46.8614 38.8424C45.4234 41.2542 43.6227 43.3599 41.4729 45.1667C39.5562 46.7772 37.4439 48.0689 35.1392 49.0454C33.6104 49.6932 32.0309 50.1789 30.4039 50.5082C28.4897 50.8954 26.5544 51.0599 24.6039 50.9809C23.7607 50.9469 22.9169 50.8684 22.0792 50.7639C19.8872 50.4904 17.7774 49.8992 15.7444 49.0379C13.1802 47.9514 10.8602 46.4772 8.7912 44.6129C6.0842 42.1739 4.0007 39.2842 2.5517 35.9392C1.76295 34.1177 1.2072 32.2274 0.872447 30.2707C0.584197 28.5854 0.465197 26.8877 0.535197 25.1814C0.772947 19.3907 2.76745 14.2779 6.51545 9.85819C8.3037 7.74969 10.4049 6.00444 12.7847 4.59594C12.8157 4.57769 12.8487 4.56244 12.9059 4.53294Z" fill="#00B0FF"/>
<path d="M12.9059 4.53294C12.9059 4.62119 12.9059 4.68319 12.9059 4.74519C12.9059 11.5617 12.9042 18.3784 12.9087 25.1949C12.9092 25.8894 12.9219 26.5857 12.9744 27.2777C13.0674 28.5017 13.3694 29.6809 13.8412 30.8142C14.9827 33.5559 16.8612 35.6432 19.4544 37.0837C20.6384 37.7414 21.9064 38.1754 23.2392 38.4164C24.1942 38.5892 25.1582 38.6469 26.1259 38.5922C28.3409 38.4667 30.3904 37.8147 32.2507 36.6014C34.6712 35.0227 36.3599 32.8632 37.3154 30.1354C37.6764 29.1052 37.8869 28.0424 37.9589 26.9524C38.1354 24.2839 37.5454 21.7974 36.1447 19.5192C34.6772 17.1322 32.6264 15.4242 30.0224 14.3862C29.0202 13.9867 27.9804 13.7309 26.9079 13.6124C23.9579 13.2869 21.2254 13.9122 18.7117 15.4912C18.6847 15.5082 18.6554 15.5219 18.6137 15.5444C18.6112 15.4877 18.6074 15.4439 18.6074 15.4002C18.6072 11.0127 18.6077 6.62519 18.6042 2.23769C18.6042 2.12344 18.6412 2.08044 18.7454 2.05169C19.8702 1.74219 21.0102 1.50744 22.1659 1.35169C23.5727 1.16194 24.9867 1.10169 26.4044 1.15244C27.5454 1.19319 28.6787 1.31569 29.8042 1.51444C32.6722 2.02044 35.3737 2.99144 37.8887 4.45744C42.4179 7.09694 45.8072 10.7914 48.0494 15.5324C48.9722 17.4837 49.6097 19.5274 49.9922 21.6507C50.3099 23.4157 50.4339 25.1959 50.3644 26.9867C50.2002 31.2337 49.0389 35.1899 46.8614 38.8424C45.4234 41.2542 43.6227 43.3599 41.4729 45.1667C39.5562 46.7772 37.4439 48.0689 35.1392 49.0454C33.6104 49.6932 32.0309 50.1789 30.4039 50.5082C28.4897 50.8954 26.5544 51.0599 24.6039 50.9809C23.7607 50.9469 22.9169 50.8684 22.0792 50.7639C19.8872 50.4904 17.7774 49.8992 15.7444 49.0379C13.1802 47.9514 10.8602 46.4772 8.7912 44.6129C6.0842 42.1739 4.0007 39.2842 2.5517 35.9392C1.76295 34.1177 1.2072 32.2274 0.872447 30.2707C0.584197 28.5854 0.465197 26.8877 0.535197 25.1814C0.772947 19.3907 2.76745 14.2779 6.51545 9.85819C8.3037 7.74969 10.4049 6.00444 12.7847 4.59594C12.8157 4.57769 12.8487 4.56244 12.9059 4.53294" stroke="white"/>
</svg>
